<svg xmlns="http://www.w3.org/2000/svg" viewBox="0 0 2560 1600"><defs><style>.cls-1{font-size:50px;fill:#1129f4;font-family:GTCinetypeRegular, GT Cinetype;}.cls-2{letter-spacing:-0.01em;}.cls-3{letter-spacing:-0.03em;}.cls-4{letter-spacing:-0.05em;}.cls-5{letter-spacing:-0.01em;}.cls-6{letter-spacing:-0.02em;}.cls-7{letter-spacing:-0.04em;}.cls-8{letter-spacing:-0.02em;}.cls-9{letter-spacing:0em;}.cls-10{letter-spacing:-0.01em;}.cls-11{letter-spacing:-0.02em;}.cls-12{letter-spacing:0em;}.cls-13{letter-spacing:-0.03em;}.cls-14{letter-spacing:-0.04em;}.cls-15{letter-spacing:-0.05em;}.cls-16{letter-spacing:0em;}.cls-17{letter-spacing:-0.02em;}.cls-18{letter-spacing:0em;}.cls-19{letter-spacing:-0.03em;}.cls-20{letter-spacing:0em;}.cls-21{letter-spacing:-0.04em;}.cls-22{letter-spacing:-0.01em;}.cls-23{letter-spacing:-0.05em;}.cls-24{letter-spacing:-0.03em;}.cls-25{letter-spacing:-0.06em;}</style></defs><title>three</title><g id="Layer_1" data-name="Layer 1"><text class="cls-1" transform="translate(514 600)"><tspan class="cls-2">A</tspan><tspan x="30" y="0" xml:space="preserve"> pi</tspan><tspan class="cls-3" x="88" y="0">x</tspan><tspan x="114" y="0">el </tspan><tspan class="cls-2" x="171" y="0">c</tspan><tspan x="196" y="0">an</tspan><tspan class="cls-4" x="253" y="0">’</tspan><tspan class="cls-5" x="265" y="0">t </tspan><tspan class="cls-6" x="299" y="0">t</tspan><tspan x="319" y="0">a</tspan><tspan class="cls-7" x="347" y="0">k</tspan><tspan x="373" y="0">e up sp</tspan><tspan class="cls-5" x="544" y="0">a</tspan><tspan class="cls-8" x="572" y="0">c</tspan><tspan class="cls-9" x="596" y="0">e</tspan><tspan x="625" y="0">.</tspan><tspan class="cls-2" x="0" y="70">A</tspan><tspan x="30" y="70" xml:space="preserve"> map hasn</tspan><tspan class="cls-4" x="275" y="70">’</tspan><tspan class="cls-10" x="286" y="70">t </tspan><tspan x="320" y="70">t</tspan><tspan class="cls-11" x="341" y="70">r</tspan><tspan class="cls-10" x="360" y="70">e</tspan><tspan class="cls-12" x="389" y="70">ad </tspan><tspan class="cls-13" x="461" y="70">e</tspan><tspan class="cls-6" x="488" y="70">v</tspan><tspan x="514" y="70">ery p</tspan><tspan class="cls-2" x="635" y="70">a</tspan><tspan x="663" y="70">th </tspan><tspan class="cls-14" x="727" y="70">b</tspan><tspan x="755" y="70">y</tspan><tspan class="cls-10" x="782" y="70"> </tspan><tspan class="cls-15" x="797" y="70">f</tspan><tspan class="cls-16" x="814" y="70">oot. </tspan><tspan class="cls-16"><tspan x="0" y="140">1000 b</tspan><tspan class="cls-17" x="160" y="140">r</tspan><tspan x="179" y="140">ochu</tspan><tspan class="cls-17" x="291" y="140">re</tspan><tspan class="cls-18" x="338" y="140">s on</tspan><tspan class="cls-19" x="434" y="140">l</tspan><tspan class="cls-20" x="446" y="140">y ma</tspan><tspan class="cls-21" x="562" y="140">k</tspan><tspan class="cls-20" x="587" y="140">e up a cubic</tspan><tspan class="cls-22" x="870" y="140"> </tspan><tspan class="cls-23" x="884" y="140">f</tspan><tspan class="cls-18" x="902" y="140">oo</tspan><tspan class="cls-22" x="958" y="140">t</tspan><tspan x="978" y="140"> </tspan><tspan class="cls-22" x="992" y="140">of </tspan><tspan x="1054" y="140">the</tspan><tspan class="cls-24" x="1132" y="140"> </tspan><tspan class="cls-25" x="1145" y="140">T</tspan><tspan x="1168" y="140">ablelands.</tspan></tspan></text></g></svg>