<svg xmlns="http://www.w3.org/2000/svg" viewBox="0 0 2560 1600"><defs><style>.cls-1{font-size:50px;fill:#1129f4;font-family:GTCinetypeRegular, GT Cinetype;}.cls-2{letter-spacing:-0.03em;}.cls-3{letter-spacing:-0.02em;}.cls-4{letter-spacing:-0.01em;}.cls-5{letter-spacing:-0.01em;}.cls-6{letter-spacing:0em;}.cls-7{letter-spacing:-0.02em;}.cls-8{letter-spacing:0em;}.cls-9{letter-spacing:-0.04em;}.cls-10{letter-spacing:-0.01em;}.cls-11{letter-spacing:-0.02em;}.cls-12{letter-spacing:-0.03em;}.cls-13{letter-spacing:-0.02em;}.cls-14{letter-spacing:-0.01em;}.cls-15{letter-spacing:-0.09em;}</style></defs><title>three</title><g id="Layer_1" data-name="Layer 1"><text class="cls-1" transform="translate(514 600)"><tspan class="cls-2">E</tspan><tspan class="cls-3" x="28" y="0">v</tspan><tspan x="53" y="0">e</tspan><tspan class="cls-4" x="82" y="0">r</tspan><tspan x="102" y="0" xml:space="preserve"> no</tspan><tspan class="cls-5" x="174" y="0">t</tspan><tspan class="cls-6" x="194" y="0">i</tspan><tspan class="cls-7" x="207" y="0">c</tspan><tspan x="231" y="0">e h</tspan><tspan class="cls-3" x="304" y="0">o</tspan><tspan class="cls-8" x="330" y="0">w </tspan><tspan class="cls-9" x="384" y="0">y</tspan><tspan x="409" y="0">ou</tspan><tspan class="cls-10" x="466" y="0">r</tspan><tspan class="cls-6" x="486" y="0" xml:space="preserve"> iPhone pho</tspan><tspan class="cls-11" x="761" y="0">to</tspan><tspan x="807" y="0">s n</tspan><tspan class="cls-12" x="876" y="0">e</tspan><tspan class="cls-3" x="903" y="0">v</tspan><tspan x="929" y="0">e</tspan><tspan class="cls-4" x="958" y="0">r</tspan><tspan x="978" y="0" xml:space="preserve"> do a pl</tspan><tspan class="cls-4" x="1151" y="0">a</tspan><tspan class="cls-13" x="1178" y="0">c</tspan><tspan x="1203" y="0">e</tspan><tspan class="cls-4" x="1231" y="0"> </tspan><tspan x="1246" y="0">ju</tspan><tspan class="cls-4" x="1288" y="0">s</tspan><tspan class="cls-14" x="1313" y="0">t</tspan><tspan x="1333" y="0">i</tspan><tspan class="cls-13" x="1346" y="0">c</tspan><tspan x="1370" y="0" xml:space="preserve">e?  </tspan><tspan x="0" y="70">It</tspan><tspan class="cls-15" x="34" y="70">’</tspan><tspan class="cls-8" x="44" y="70">s li</tspan><tspan class="cls-9" x="110" y="70">k</tspan><tspan x="135" y="70">e</tspan></text></g></svg>