<svg xmlns="http://www.w3.org/2000/svg" viewBox="0 0 2560 1600"><defs><style>.cls-1{font-size:50px;fill:#1129f4;font-family:GTCinetypeRegular, GT Cinetype;}.cls-2{letter-spacing:-0.02em;}.cls-3{letter-spacing:-0.01em;}.cls-4{letter-spacing:-0.02em;}.cls-5{letter-spacing:-0.01em;}.cls-6{letter-spacing:0em;}.cls-7{letter-spacing:-0.03em;}.cls-8{letter-spacing:0em;}.cls-9{letter-spacing:-0.02em;}.cls-10{letter-spacing:-0.04em;}.cls-11{letter-spacing:-0.01em;}.cls-12{letter-spacing:0em;}.cls-13{letter-spacing:0em;}.cls-14{letter-spacing:0em;}.cls-15{letter-spacing:-0.02em;}.cls-16{letter-spacing:-0.02em;}</style></defs><title>three</title><g id="Layer_1" data-name="Layer 1"><text class="cls-1" transform="translate(514 600)">As much as I’<tspan class="cls-2" x="310" y="0">v</tspan><tspan x="336" y="0">e </tspan><tspan class="cls-3" x="379" y="0">w</tspan><tspan x="417" y="0">an</tspan><tspan class="cls-4" x="475" y="0">t</tspan><tspan x="494" y="0">ed</tspan><tspan class="cls-5" x="553" y="0"> </tspan><tspan class="cls-2" x="567" y="0">to</tspan><tspan class="cls-6" x="614" y="0">, I’</tspan><tspan class="cls-2" x="670" y="0">v</tspan><tspan x="696" y="0">e n</tspan><tspan class="cls-7" x="768" y="0">e</tspan><tspan class="cls-2" x="795" y="0">v</tspan><tspan x="821" y="0">e</tspan><tspan class="cls-5" x="850" y="0">r</tspan><tspan x="870" y="0" xml:space="preserve"> kn</tspan><tspan class="cls-4" x="941" y="0">o</tspan><tspan class="cls-8" x="968" y="0">w</tspan><tspan x="1006" y="0">n a pl</tspan><tspan class="cls-5" x="1136" y="0">a</tspan><tspan class="cls-9" x="1164" y="0">c</tspan><tspan x="1188" y="0">e </tspan><tspan class="cls-10" x="1232" y="0">b</tspan><tspan x="1259" y="0">y a pi</tspan><tspan class="cls-11" x="1388" y="0">ct</tspan><tspan class="cls-12" x="1433" y="0">u</tspan><tspan class="cls-4" x="1462" y="0">r</tspan><tspan class="cls-13" x="1481" y="0">e</tspan><tspan x="1509" y="0">. </tspan><tspan x="0" y="70">Pi</tspan><tspan class="cls-11" x="44" y="70">ct</tspan><tspan class="cls-6" x="89" y="70">u</tspan><tspan class="cls-4" x="118" y="70">re</tspan><tspan class="cls-14" x="165" y="70">s a</tspan><tspan class="cls-2" x="232" y="70">r</tspan><tspan x="252" y="70">e pl</tspan><tspan class="cls-5" x="338" y="70">a</tspan><tspan class="cls-15" x="366" y="70">c</tspan><tspan x="390" y="70">e imp</tspan><tspan class="cls-4" x="522" y="70">o</tspan><tspan class="cls-3" x="548" y="70">s</tspan><tspan class="cls-4" x="573" y="70">t</tspan><tspan x="593" y="70">e</tspan><tspan class="cls-9" x="621" y="70">r</tspan><tspan class="cls-6" x="640" y="70">s with</tspan><tspan class="cls-3" x="781" y="70"> </tspan><tspan class="cls-14" x="795" y="70">fil</tspan><tspan class="cls-16" x="842" y="70">t</tspan><tspan x="861" y="70">e</tspan><tspan class="cls-9" x="890" y="70">r</tspan><tspan x="909" y="70" xml:space="preserve">s on  </tspan></text></g></svg>