<svg xmlns="http://www.w3.org/2000/svg" viewBox="0 0 2560 1600"><defs><style>.cls-1{font-size:106px;fill:#1129f4;font-family:GTCinetypeRegular-Italic, GT Cinetype;font-style:italic;}.cls-2{letter-spacing:-0.01em;}.cls-3{letter-spacing:-0.04em;}.cls-4{letter-spacing:-0.02em;}.cls-5{letter-spacing:-0.01em;}.cls-6{letter-spacing:0em;}.cls-7{letter-spacing:-0.02em;}.cls-8{letter-spacing:0em;}.cls-9{letter-spacing:-0.04em;}.cls-10{letter-spacing:-0.01em;}.cls-11{letter-spacing:0em;}.cls-12{letter-spacing:-0.02em;}.cls-13{letter-spacing:-0.09em;}.cls-14{letter-spacing:-0.01em;}</style></defs><title>four</title><g id="Layer_1" data-name="Layer 1"><text class="cls-1" transform="translate(272 1359)">be<tspan class="cls-2" x="124" y="0">c</tspan><tspan x="177" y="0">ause </tspan><tspan class="cls-3" x="443" y="0">y</tspan><tspan x="497" y="0">ou a</tspan><tspan class="cls-4" x="709" y="0">r</tspan><tspan x="750" y="0">e</tspan><tspan class="cls-5" x="811" y="0"> </tspan><tspan class="cls-6" x="841" y="0">the pl</tspan><tspan class="cls-5" x="1129" y="0">a</tspan><tspan class="cls-7" x="1188" y="0">c</tspan><tspan class="cls-8" x="1240" y="0">e</tspan><tspan x="1300" y="0">. </tspan></text><text class="cls-1" transform="translate(512 1239)"><tspan class="cls-9">y</tspan><tspan x="54" y="0">ou hold i</tspan><tspan class="cls-10" x="477" y="0">t</tspan><tspan class="cls-11" x="520" y="0" xml:space="preserve"> in </tspan><tspan class="cls-9" x="672" y="0">y</tspan><tspan x="727" y="0">ou</tspan><tspan class="cls-10" x="847" y="0">r</tspan><tspan class="cls-11" x="889" y="0" xml:space="preserve"> bo</tspan><tspan class="cls-12" x="1043" y="0">d</tspan><tspan class="cls-13" x="1103" y="0">y</tspan><tspan x="1152" y="0">. </tspan></text><text class="cls-1" transform="translate(636 1115)"><tspan class="cls-9">y</tspan><tspan x="54" y="0">ou shape i</tspan><tspan class="cls-14" x="563" y="0">t</tspan><tspan x="606" y="0" xml:space="preserve"> in </tspan><tspan class="cls-9" x="759" y="0">y</tspan><tspan x="813" y="0">ou</tspan><tspan class="cls-14" x="934" y="0">r</tspan><tspan x="976" y="0" xml:space="preserve"> mind.</tspan></text></g></svg>