<svg xmlns="http://www.w3.org/2000/svg" viewBox="0 0 2560 1600"><defs><style>.cls-1{font-size:50px;fill:#1129f4;font-family:GTCinetypeRegular, GT Cinetype;}.cls-2{letter-spacing:-0.02em;}.cls-3{letter-spacing:0em;}.cls-4{letter-spacing:-0.02em;}.cls-5{letter-spacing:-0.01em;}.cls-6{letter-spacing:-0.02em;}.cls-7{letter-spacing:-0.03em;}.cls-8{letter-spacing:-0.01em;}.cls-9{letter-spacing:-0.04em;}.cls-10{letter-spacing:0em;}</style></defs><title>four</title><g id="Layer_1" data-name="Layer 1"><text class="cls-1"><tspan x="52" y="1505" xml:space="preserve"> som</tspan><tspan class="cls-2" x="165" y="1505">e</tspan><tspan class="cls-3" x="193" y="1505">whe</tspan><tspan class="cls-4" x="289" y="1505">r</tspan><tspan x="308" y="1505">e else—som</tspan><tspan class="cls-2" x="609" y="1505">e</tspan><tspan class="cls-3" x="637" y="1505">whe</tspan><tspan class="cls-4" x="733" y="1505">r</tspan><tspan x="752" y="1505">e no one else is o</tspan><tspan class="cls-5" x="1159" y="1505">r</tspan><tspan x="1179" y="1505"> </tspan><tspan class="cls-6" x="1193" y="1505">c</tspan><tspan x="1218" y="1505">ould </tspan><tspan class="cls-7" x="1332" y="1505">e</tspan><tspan class="cls-4" x="1360" y="1505">v</tspan><tspan x="1385" y="1505">e</tspan><tspan class="cls-5" x="1414" y="1505">r</tspan><tspan x="1434" y="1505" xml:space="preserve"> be—be</tspan><tspan class="cls-8" x="1629" y="1505">c</tspan><tspan x="1654" y="1505">ause </tspan><tspan class="cls-9" x="1780" y="1505">y</tspan><tspan x="1805" y="1505">ou a</tspan><tspan class="cls-4" x="1905" y="1505">r</tspan><tspan x="1925" y="1505">e</tspan><tspan class="cls-5" x="1953" y="1505"> </tspan><tspan x="1968" y="1505">the pl</tspan><tspan class="cls-5" x="2104" y="1505">a</tspan><tspan class="cls-6" x="2131" y="1505">c</tspan><tspan class="cls-10" x="2156" y="1505">e</tspan><tspan x="2184" y="1505">. </tspan></text></g></svg>