<svg xmlns="http://www.w3.org/2000/svg" viewBox="0 0 2560 1600"><defs><style>.cls-1{font-size:50px;fill:#1129f4;font-family:GTCinetypeRegular, GT Cinetype;}.cls-2{letter-spacing:-0.03em;}.cls-3{letter-spacing:-0.02em;}.cls-4{letter-spacing:-0.01em;}.cls-5{letter-spacing:-0.04em;}.cls-6{letter-spacing:-0.02em;}.cls-7{letter-spacing:-0.01em;}.cls-8{letter-spacing:-0.01em;}.cls-9{letter-spacing:-0.01em;}.cls-10{letter-spacing:0em;}.cls-11{letter-spacing:-0.03em;}.cls-12{letter-spacing:0.02em;}.cls-13{letter-spacing:-0.02em;}.cls-14{letter-spacing:-0.04em;}</style></defs><title>four</title><g id="Layer_1" data-name="Layer 1"><text class="cls-1" transform="translate(52 105)"><tspan class="cls-2">E</tspan><tspan class="cls-3" x="28" y="0">v</tspan><tspan x="53" y="0">en video</tspan><tspan class="cls-4" x="252" y="0"> </tspan><tspan class="cls-5" x="266" y="0">f</tspan><tspan x="285" y="0">ails </tspan><tspan class="cls-6" x="0" y="70">t</tspan><tspan x="20" y="70">o </tspan><tspan class="cls-7" x="62" y="70">c</tspan><tspan x="87" y="70">ap</tspan><tspan class="cls-8" x="145" y="70">t</tspan><tspan x="165" y="70">u</tspan><tspan class="cls-3" x="194" y="70">r</tspan><tspan x="213" y="70">e</tspan><tspan class="cls-9" x="242" y="70"> </tspan><tspan x="256" y="70">the </tspan><tspan x="0" y="140">dep</tspan><tspan class="cls-6" x="88" y="140">res</tspan><tspan class="cls-10" x="159" y="140">sed </tspan><tspan x="0" y="210">r</tspan><tspan class="cls-5" x="20" y="210">h</tspan><tspan class="cls-11" x="47" y="210">y</tspan><tspan x="73" y="210">thm </tspan><tspan class="cls-9" x="183" y="210">of </tspan><tspan x="244" y="210">the </tspan><tspan x="0" y="280">airpo</tspan><tspan class="cls-12" x="119" y="280">r</tspan><tspan class="cls-4" x="140" y="280">t</tspan><tspan x="161" y="280"> </tspan><tspan class="cls-8" x="175" y="280">a</tspan><tspan class="cls-4" x="203" y="280">t</tspan><tspan x="223" y="280" xml:space="preserve"> 3am, </tspan><tspan x="0" y="350">the </tspan><tspan class="cls-4" x="93" y="350">w</tspan><tspan class="cls-6" x="131" y="350">a</tspan><tspan x="158" y="350">y </tspan><tspan class="cls-5" x="201" y="350">y</tspan><tspan x="226" y="350">ou</tspan><tspan class="cls-9" x="283" y="350">r</tspan><tspan x="303" y="350"> </tspan><tspan x="0" y="420">bo</tspan><tspan class="cls-13" x="58" y="420">d</tspan><tspan x="86" y="420">y s</tspan><tspan class="cls-9" x="153" y="420">w</tspan><tspan class="cls-3" x="191" y="420">a</tspan><tspan class="cls-14" x="218" y="420">y</tspan><tspan x="244" y="420">s in </tspan></text></g></svg>