<svg xmlns="http://www.w3.org/2000/svg" viewBox="0 0 2560 1600"><defs><style>.cls-1{font-size:50px;fill:#1129f4;font-family:GTCinetypeRegular, GT Cinetype;}.cls-2{letter-spacing:-0.03em;}.cls-3{letter-spacing:-0.02em;}.cls-4{letter-spacing:-0.01em;}.cls-5{letter-spacing:-0.04em;}.cls-6{letter-spacing:-0.02em;}.cls-7{letter-spacing:-0.01em;}.cls-8{letter-spacing:-0.01em;}.cls-9{letter-spacing:-0.01em;}.cls-10{letter-spacing:0em;}.cls-11{letter-spacing:-0.03em;}.cls-12{letter-spacing:0.02em;}.cls-13{letter-spacing:-0.02em;}.cls-14{letter-spacing:-0.04em;}.cls-15{letter-spacing:-0.09em;}.cls-16{letter-spacing:0em;}</style></defs><title>four</title><g id="Layer_1" data-name="Layer 1"><text class="cls-1" transform="translate(52 105)"><tspan class="cls-2">E</tspan><tspan class="cls-3" x="28" y="0">v</tspan><tspan x="53" y="0">en video</tspan><tspan class="cls-4" x="252" y="0"> </tspan><tspan class="cls-5" x="266" y="0">f</tspan><tspan x="285" y="0">ails </tspan><tspan class="cls-6" x="0" y="70">t</tspan><tspan x="20" y="70">o </tspan><tspan class="cls-7" x="62" y="70">c</tspan><tspan x="87" y="70">ap</tspan><tspan class="cls-8" x="145" y="70">t</tspan><tspan x="165" y="70">u</tspan><tspan class="cls-3" x="194" y="70">r</tspan><tspan x="213" y="70">e</tspan><tspan class="cls-9" x="242" y="70"> </tspan><tspan x="256" y="70">the </tspan><tspan x="0" y="140">dep</tspan><tspan class="cls-6" x="88" y="140">res</tspan><tspan class="cls-10" x="159" y="140">sed </tspan><tspan x="0" y="210">r</tspan><tspan class="cls-5" x="20" y="210">h</tspan><tspan class="cls-11" x="47" y="210">y</tspan><tspan x="73" y="210">thm </tspan><tspan class="cls-9" x="183" y="210">of </tspan><tspan x="244" y="210">the </tspan><tspan x="0" y="280">airpo</tspan><tspan class="cls-12" x="119" y="280">r</tspan><tspan class="cls-4" x="140" y="280">t</tspan><tspan x="161" y="280"> </tspan><tspan class="cls-8" x="175" y="280">a</tspan><tspan class="cls-4" x="203" y="280">t</tspan><tspan x="223" y="280" xml:space="preserve"> 3am, </tspan><tspan x="0" y="350">the </tspan><tspan class="cls-4" x="93" y="350">w</tspan><tspan class="cls-6" x="131" y="350">a</tspan><tspan x="158" y="350">y </tspan><tspan class="cls-5" x="201" y="350">y</tspan><tspan x="226" y="350">ou</tspan><tspan class="cls-9" x="283" y="350">r</tspan><tspan x="303" y="350"> </tspan><tspan x="0" y="420">bo</tspan><tspan class="cls-13" x="58" y="420">d</tspan><tspan x="86" y="420">y s</tspan><tspan class="cls-9" x="153" y="420">w</tspan><tspan class="cls-3" x="191" y="420">a</tspan><tspan class="cls-14" x="218" y="420">y</tspan><tspan x="244" y="420">s in </tspan><tspan x="0" y="490">the b</tspan><tspan class="cls-4" x="123" y="490">a</tspan><tspan x="151" y="490">c</tspan><tspan class="cls-9" x="176" y="490">k</tspan><tspan class="cls-10" x="203" y="490" xml:space="preserve"> s</tspan><tspan class="cls-4" x="243" y="490">e</tspan><tspan class="cls-8" x="271" y="490">a</tspan><tspan class="cls-4" x="299" y="490">t</tspan><tspan x="319" y="490"> </tspan><tspan x="0" y="560">with</tspan><tspan class="cls-4" x="101" y="560"> </tspan><tspan x="116" y="560">the cur</tspan><tspan class="cls-6" x="284" y="560">v</tspan><tspan x="309" y="560">e </tspan><tspan class="cls-4" x="353" y="560">of</tspan><tspan x="400" y="560"> </tspan><tspan x="0" y="630">the </tspan><tspan class="cls-3" x="93" y="630">r</tspan><tspan x="112" y="630">oad,</tspan><tspan class="cls-9" x="212" y="630"> </tspan><tspan x="226" y="630">the </tspan><tspan x="0" y="700">wind</tspan><tspan class="cls-15" x="111" y="700">’</tspan><tspan class="cls-10" x="120" y="700">s </tspan><tspan class="cls-13" x="160" y="700">c</tspan><tspan x="184" y="700">old burn </tspan><tspan x="0" y="770">and</tspan><tspan class="cls-4" x="87" y="770"> </tspan><tspan x="101" y="770">the ho</tspan><tspan class="cls-4" x="252" y="770">t</tspan><tspan class="cls-16" x="272" y="770" xml:space="preserve"> rush </tspan><tspan class="cls-4" x="0" y="840">a</tspan><tspan class="cls-2" x="28" y="840">f</tspan><tspan class="cls-3" x="46" y="840">t</tspan><tspan x="66" y="840">er</tspan><tspan class="cls-4" x="115" y="840">w</tspan><tspan class="cls-16" x="153" y="840">a</tspan><tspan class="cls-3" x="181" y="840">r</tspan><tspan x="200" y="840">d,</tspan><tspan class="cls-4" x="244" y="840"> </tspan><tspan x="258" y="840">the </tspan><tspan x="0" y="910">banali</tspan><tspan class="cls-11" x="142" y="910">t</tspan><tspan x="161" y="910">y </tspan><tspan class="cls-4" x="203" y="910">of </tspan><tspan x="265" y="910">the </tspan><tspan x="0" y="980">gas </tspan><tspan class="cls-4" x="98" y="980">s</tspan><tspan class="cls-6" x="122" y="980">t</tspan><tspan class="cls-8" x="142" y="980">at</tspan><tspan x="189" y="980">ion,</tspan><tspan class="cls-4" x="273" y="980"> </tspan><tspan class="cls-16" x="288" y="980">the </tspan><tspan x="0" y="1050">shu</tspan><tspan class="cls-3" x="83" y="1050">tt</tspan><tspan x="122" y="1050">e</tspan><tspan class="cls-6" x="151" y="1050">r</tspan><tspan x="170" y="1050">ed inns </tspan><tspan x="0" y="1120">and shops,</tspan><tspan class="cls-4" x="252" y="1120"> </tspan><tspan x="267" y="1120">the </tspan></text></g></svg>