<?xml version="1.0" encoding="utf-8"?>
<!-- Generator: Adobe Illustrator 16.0.4, SVG Export Plug-In . SVG Version: 6.00 Build 0)  -->
<!DOCTYPE svg PUBLIC "-//W3C//DTD SVG 1.1//EN" "http://www.w3.org/Graphics/SVG/1.1/DTD/svg11.dtd">
<svg version="1.1" id="Layer_1" xmlns="http://www.w3.org/2000/svg" xmlns:xlink="http://www.w3.org/1999/xlink" x="0px" y="0px"
	 width="1872px" height="864px" viewBox="0 0 1872 864" enable-background="new 0 0 1872 864" xml:space="preserve">
<g>
	
		<rect x="1641.088" y="480.353" transform="matrix(-0.7071 -0.7071 0.7071 -0.7071 2404.7637 2364.0857)" fill="#FFFFFF" width="101.823" height="407.294"/>
	
		<rect x="633.088" y="-23.647" transform="matrix(-0.7071 0.7071 -0.7071 -0.7071 1294.9402 -176.3818)" fill="#FFFFFF" width="101.823" height="407.294"/>
	
		<rect x="129.088" y="-23.647" transform="matrix(-0.7071 0.7071 -0.7071 -0.7071 434.5584 180)" fill="#FFFFFF" width="101.823" height="407.294"/>
	
		<rect x="1137.088" y="-23.647" transform="matrix(-0.7071 0.7071 -0.7071 -0.7071 2155.322 -532.7636)" fill="#FFFFFF" width="101.823" height="407.294"/>
	
		<rect x="1641.088" y="-23.647" transform="matrix(-0.7071 0.7071 -0.7071 -0.7071 3015.7039 -889.1455)" fill="#FFFFFF" width="101.823" height="407.294"/>
	
		<rect x="633.088" y="480.353" transform="matrix(-0.7071 -0.7071 0.7071 -0.7071 684 1651.322)" fill="#FFFFFF" width="101.823" height="407.294"/>
	
		<rect x="129.088" y="480.353" transform="matrix(-0.7071 -0.7071 0.7071 -0.7071 -176.3818 1294.9402)" fill="#FFFFFF" width="101.823" height="407.294"/>
	
		<rect x="1137.088" y="480.353" transform="matrix(-0.7071 -0.7071 0.7071 -0.7071 1544.3818 2007.7039)" fill="#FFFFFF" width="101.823" height="407.294"/>
</g>
</svg>
