<svg xmlns="http://www.w3.org/2000/svg" viewBox="0 0 2560 1600"><defs><style>.cls-1{font-size:50px;fill:#1129f4;font-family:GTCinetypeRegular, GT Cinetype;}.cls-2{letter-spacing:-0.02em;}.cls-3{letter-spacing:-0.01em;}.cls-4{letter-spacing:-0.01em;}.cls-5{letter-spacing:0em;}.cls-6{letter-spacing:-0.01em;}.cls-7{letter-spacing:-0.01em;}.cls-8{letter-spacing:-0.02em;}.cls-9{letter-spacing:-0.01em;}.cls-10{letter-spacing:-0.02em;}.cls-11{letter-spacing:0em;}.cls-12{letter-spacing:-0.01em;}.cls-13{letter-spacing:-0.04em;}.cls-14{letter-spacing:0em;}.cls-15{letter-spacing:-0.02em;}.cls-16{letter-spacing:0em;}.cls-17{letter-spacing:-0.04em;}.cls-18{letter-spacing:-0.04em;}.cls-19{letter-spacing:0em;}.cls-20{letter-spacing:-0.04em;}.cls-21{letter-spacing:0em;}</style></defs><title>two</title><g id="Layer_1" data-name="Layer 1"><text class="cls-1" transform="translate(1664 154)">Whe<tspan class="cls-2" x="101" y="0">r</tspan><tspan x="120" y="0">e will I </tspan><tspan class="cls-3" x="285" y="0">e</tspan><tspan class="cls-4" x="313" y="0">a</tspan><tspan class="cls-5" x="341" y="0">t?</tspan></text><text class="cls-1" transform="translate(288 1026)">Wh<tspan class="cls-6" x="73" y="0">a</tspan><tspan class="cls-7" x="100" y="0">t</tspan><tspan x="120" y="0" xml:space="preserve"> should I b</tspan><tspan class="cls-8" x="362" y="0">r</tspan><tspan class="cls-5" x="381" y="0">ing?</tspan></text><text class="cls-1" transform="translate(608 1418)">Wh<tspan class="cls-6" x="73" y="0">a</tspan><tspan class="cls-7" x="100" y="0">t</tspan><tspan x="120" y="0" xml:space="preserve"> should I b</tspan><tspan class="cls-8" x="362" y="0">r</tspan><tspan class="cls-5" x="381" y="0">ing?</tspan></text><text class="cls-1" transform="translate(168 696)">Who will I me<tspan class="cls-9" x="310" y="0">e</tspan><tspan class="cls-5" x="338" y="0">t?</tspan></text><text class="cls-1" transform="translate(168 766)">H<tspan class="cls-2" x="34" y="0">o</tspan><tspan x="61" y="0">w will </tspan><tspan class="cls-10" x="207" y="0">w</tspan><tspan class="cls-11" x="244" y="0">e</tspan><tspan class="cls-3" x="273" y="0"> </tspan><tspan x="287" y="0">t</tspan><tspan class="cls-10" x="308" y="0">r</tspan><tspan class="cls-9" x="327" y="0">e</tspan><tspan class="cls-4" x="355" y="0">a</tspan><tspan class="cls-12" x="383" y="0">t</tspan><tspan x="403" y="0"> </tspan><tspan class="cls-3" x="417" y="0">ea</tspan><tspan class="cls-5" x="473" y="0">ch other?</tspan></text><text class="cls-1" transform="translate(1620 518)">Wh<tspan class="cls-6" x="73" y="0">a</tspan><tspan class="cls-7" x="100" y="0">t</tspan><tspan x="120" y="0" xml:space="preserve"> will I</tspan><tspan class="cls-12" x="241" y="0"> </tspan><tspan x="255" y="0">thin</tspan><tspan class="cls-12" x="348" y="0">k</tspan><tspan x="375" y="0"> </tspan><tspan class="cls-3" x="390" y="0">of</tspan><tspan class="cls-11" x="437" y="0"> </tspan><tspan class="cls-10" x="451" y="0">m</tspan><tspan class="cls-13" x="495" y="0">y</tspan><tspan x="521" y="0">self?</tspan></text><text class="cls-1" transform="translate(1280 750)">Whe<tspan class="cls-2" x="101" y="0">r</tspan><tspan x="120" y="0">e will I go?</tspan></text><text class="cls-1" transform="translate(396 306)">Wh<tspan class="cls-6" x="73" y="0">a</tspan><tspan class="cls-7" x="100" y="0">t</tspan><tspan x="120" y="0" xml:space="preserve"> will I see when I loo</tspan><tspan class="cls-3" x="591" y="0">k</tspan><tspan x="618" y="0" xml:space="preserve"> ou</tspan><tspan class="cls-3" x="689" y="0">t</tspan><tspan class="cls-14" x="710" y="0"> </tspan><tspan class="cls-15" x="724" y="0">m</tspan><tspan x="768" y="0">y wind</tspan><tspan class="cls-10" x="921" y="0">o</tspan><tspan class="cls-16" x="948" y="0">w?</tspan></text><text class="cls-1" transform="translate(1620 1330)">Wh<tspan class="cls-6" x="73" y="0">a</tspan><tspan class="cls-7" x="100" y="0">t</tspan><tspan x="120" y="0" xml:space="preserve"> do</tspan><tspan class="cls-2" x="193" y="0">e</tspan><tspan x="220" y="0">s</tspan><tspan class="cls-12" x="245" y="0"> </tspan><tspan x="259" y="0">the ai</tspan><tspan class="cls-12" x="394" y="0">r </tspan><tspan class="cls-17" x="428" y="0">f</tspan><tspan class="cls-11" x="446" y="0">eel li</tspan><tspan class="cls-18" x="557" y="0">k</tspan><tspan x="583" y="0">e?</tspan></text><text class="cls-1" transform="translate(1096 956)">H<tspan class="cls-10" x="34" y="0">o</tspan><tspan x="61" y="0">w will I</tspan><tspan class="cls-9" x="220" y="0"> </tspan><tspan class="cls-17" x="234" y="0">f</tspan><tspan class="cls-11" x="252" y="0">eel when I </tspan><tspan class="cls-7" x="506" y="0">w</tspan><tspan class="cls-19" x="544" y="0">a</tspan><tspan class="cls-20" x="572" y="0">k</tspan><tspan class="cls-21" x="598" y="0">e up in</tspan><tspan class="cls-7" x="757" y="0"> </tspan><tspan class="cls-19" x="772" y="0">the morning???????????</tspan></text></g></svg>