<svg xmlns="http://www.w3.org/2000/svg" viewBox="0 0 2560 1600"><defs><style>.cls-1{font-size:50px;fill:#1129f4;font-family:GTCinetypeRegular, GT Cinetype;}.cls-2{letter-spacing:-0.03em;}.cls-3{letter-spacing:-0.02em;}.cls-4{letter-spacing:-0.01em;}.cls-5{letter-spacing:0em;}.cls-6{letter-spacing:-0.02em;}.cls-7{letter-spacing:-0.02em;}.cls-8{letter-spacing:-0.06em;}.cls-9{letter-spacing:0em;}.cls-10{letter-spacing:-0.01em;}.cls-11{letter-spacing:-0.01em;}.cls-12{letter-spacing:-0.01em;}.cls-13{letter-spacing:-0.04em;}.cls-14{letter-spacing:-0.02em;}.cls-15{letter-spacing:0em;}.cls-16{letter-spacing:0em;}</style></defs><title>one</title><g id="Layer_1" data-name="Layer 1"><text class="cls-1" transform="translate(1664 154)"><tspan class="cls-2">E</tspan><tspan class="cls-3" x="28" y="0">v</tspan><tspan x="53" y="0">er</tspan><tspan class="cls-2" x="102" y="0">y</tspan><tspan class="cls-4" x="128" y="0">t</tspan><tspan x="148" y="0">ime I go som</tspan><tspan class="cls-3" x="449" y="0">e</tspan><tspan class="cls-5" x="476" y="0">whe</tspan><tspan class="cls-6" x="572" y="0">r</tspan><tspan x="592" y="0">e n</tspan><tspan class="cls-7" x="664" y="0">e</tspan><tspan class="cls-8" x="692" y="0">w</tspan><tspan class="cls-9" x="728" y="0">, </tspan><tspan x="0" y="70">I</tspan><tspan class="cls-10" x="14" y="70"> </tspan><tspan x="28" y="70">try</tspan><tspan class="cls-10" x="96" y="70"> </tspan><tspan class="cls-3" x="111" y="70">t</tspan><tspan x="130" y="70">o kn</tspan><tspan class="cls-6" x="230" y="70">o</tspan><tspan x="257" y="70">w it. </tspan><tspan x="0" y="140">I</tspan><tspan class="cls-10" x="14" y="140"> </tspan><tspan x="28" y="140">try</tspan><tspan class="cls-10" x="96" y="140"> </tspan><tspan class="cls-3" x="111" y="140">t</tspan><tspan x="130" y="140">o kn</tspan><tspan class="cls-6" x="230" y="140">o</tspan><tspan x="257" y="140">w i</tspan><tspan class="cls-11" x="323" y="140">t</tspan><tspan x="343" y="140" xml:space="preserve"> b</tspan><tspan class="cls-12" x="388" y="140">e</tspan><tspan class="cls-13" x="416" y="140">f</tspan><tspan x="434" y="140">o</tspan><tspan class="cls-6" x="462" y="140">r</tspan><tspan x="481" y="140">e i</tspan><tspan class="cls-12" x="538" y="140">t</tspan><tspan x="558" y="140" xml:space="preserve"> kn</tspan><tspan class="cls-3" x="629" y="140">o</tspan><tspan class="cls-14" x="656" y="140">w</tspan><tspan x="693" y="140">s m</tspan><tspan class="cls-15" x="778" y="140">e</tspan><tspan class="cls-16" x="807" y="140">.</tspan></text></g></svg>